<svg width="56" height="56" viewBox="0 0 56 56" fill="none" xmlns="http://www.w3.org/2000/svg">
<g filter="url(#filter0_di_0_2018)">
<path d="M7.65723 11.935C8.78157 7.91951 11.9195 4.78157 15.935 3.65723C23.8266 1.44759 32.1734 1.44759 40.065 3.65723C44.0805 4.78157 47.2184 7.91952 48.3428 11.935C50.5524 19.8266 50.5524 28.1734 48.3428 36.065C47.2184 40.0805 44.0805 43.2184 40.065 44.3428C32.1734 46.5524 23.8266 46.5524 15.935 44.3428C11.9195 43.2184 8.78157 40.0805 7.65723 36.065C5.44759 28.1734 5.44759 19.8266 7.65723 11.935Z" fill="#1E1E1E"/>
<path d="M25.8844 16.3656C25.3969 15.8781 24.6062 15.8781 24.1156 16.3656L18.3656 22.1156C17.8781 22.6031 17.8781 23.3938 18.3656 23.8844L24.1156 29.6344C24.6031 30.1219 25.3938 30.1219 25.8844 29.6344L31.6344 23.8844C32.1219 23.3969 32.1219 22.6062 31.6344 22.1156L25.8844 16.3656ZM25.75 23C25.75 23.4156 25.4156 23.75 25 23.75C24.5844 23.75 24.25 23.4156 24.25 23C24.25 22.5844 24.5844 22.25 25 22.25C25.4156 22.25 25.75 22.5844 25.75 23ZM21 23.75C20.5844 23.75 20.25 23.4156 20.25 23C20.25 22.5844 20.5844 22.25 21 22.25C21.4156 22.25 21.75 22.5844 21.75 23C21.75 23.4156 21.4156 23.75 21 23.75ZM25 26.25C25.4156 26.25 25.75 26.5844 25.75 27C25.75 27.4156 25.4156 27.75 25 27.75C24.5844 27.75 24.25 27.4156 24.25 27C24.25 26.5844 24.5844 26.25 25 26.25ZM29 23.75C28.5844 23.75 28.25 23.4156 28.25 23C28.25 22.5844 28.5844 22.25 29 22.25C29.4156 22.25 29.75 22.5844 29.75 23C29.75 23.4156 29.4156 23.75 29 23.75ZM25 18.25C25.4156 18.25 25.75 18.5844 25.75 19C25.75 19.4156 25.4156 19.75 25 19.75C24.5844 19.75 24.25 19.4156 24.25 19C24.25 18.5844 24.5844 18.25 25 18.25ZM28 30.5C28 31.3281 28.6719 32 29.5 32H36.5C37.3281 32 38 31.3281 38 30.5V23.5C38 22.6719 37.3281 22 36.5 22H32.7656C33.1844 22.8406 33.0406 23.8906 32.3406 24.5906L28 28.9312V30.5ZM33 27.75C32.5844 27.75 32.25 27.4156 32.25 27C32.25 26.5844 32.5844 26.25 33 26.25C33.4156 26.25 33.75 26.5844 33.75 27C33.75 27.4156 33.4156 27.75 33 27.75Z" fill="#868686"/>
</g>
<defs>
<filter id="filter0_di_0_2018" x="0" y="0" width="56" height="56" filterUnits="userSpaceOnUse" color-interpolation-filters="sRGB">
<feFlood flood-opacity="0" result="BackgroundImageFix"/>
<feColorMatrix in="SourceAlpha" type="matrix" values="0 0 0 0 0 0 0 0 0 0 0 0 0 0 0 0 0 0 127 0" result="hardAlpha"/>
<feOffset dy="4"/>
<feGaussianBlur stdDeviation="3"/>
<feComposite in2="hardAlpha" operator="out"/>
<feColorMatrix type="matrix" values="0 0 0 0 0 0 0 0 0 0 0 0 0 0 0 0 0 0 0.15 0"/>
<feBlend mode="normal" in2="BackgroundImageFix" result="effect1_dropShadow_0_2018"/>
<feBlend mode="normal" in="SourceGraphic" in2="effect1_dropShadow_0_2018" result="shape"/>
<feColorMatrix in="SourceAlpha" type="matrix" values="0 0 0 0 0 0 0 0 0 0 0 0 0 0 0 0 0 0 127 0" result="hardAlpha"/>
<feOffset dy="1"/>
<feGaussianBlur stdDeviation="0.5"/>
<feComposite in2="hardAlpha" operator="arithmetic" k2="-1" k3="1"/>
<feColorMatrix type="matrix" values="0 0 0 0 1 0 0 0 0 1 0 0 0 0 1 0 0 0 0.1 0"/>
<feBlend mode="normal" in2="shape" result="effect2_innerShadow_0_2018"/>
</filter>
</defs>
</svg>
